<svg xmlns="http://www.w3.org/2000/svg" viewBox="0 0 200 200">
  <path fill="#0069D9" d="M131 48.3c13.7 5.8 32.3 5.1 42.9 12.6 10.6 7.5 13 23.3 12.3 38.7-.6 15.4-4.5 30.4-11.9 43.3-7.4 13-18.4 24-31.4 30.2-13 6.1-27.9 7.6-42.5 6.9-14.6-.7-28.7-3.5-43.1-8.9-14.4-5.4-28.9-13.4-36.3-25.7-7.4-12.2-7.7-28.8-4.4-43.5C20 87.3 26.9 74.6 34.4 62.4c7.5-12.1 15.5-23.7 26.5-31C72 24.1 86 21 97.3 25.6c11.4 4.6 20.1 16.9 33.7 22.7z"/>
  <path d="M96.26 115.47 94.8 136.2h-54.5v-3.49q1.17-.1 3.38-.34 2.26-.25 3.15-.64 1.47-.64 2.11-1.87.69-1.23.69-3.15V76.8q0-1.67-.59-2.95-.54-1.28-2.21-2.06-1.13-.6-3.2-1.14-2.01-.59-3.34-.68v-3.5h29.44v3.5q-1.38.05-3.59.49-2.16.44-3.14.78-1.67.6-2.31 2.02-.6 1.42-.6 3.05v46.83q0 3.25.3 5.07.35 1.77 1.53 2.75 1.13.88 3.34 1.18 2.26.24 6.29.24 1.82 0 3.78-.1 1.97-.1 3.74-.39 1.72-.3 3.14-.78 1.48-.55 2.17-1.33 2.01-2.26 4.67-6.83 2.7-4.62 3.73-7.47zm46.55 9.34q-3.05 5.8-8.16 9.24-5.11 3.44-11.75 3.44-5.85 0-10.27-2.07-4.37-2.06-7.23-5.6-2.85-3.54-4.27-8.26-1.38-4.72-1.38-9.97 0-4.72 1.48-9.25 1.52-4.56 4.42-8.2 2.8-3.5 6.93-5.6 4.18-2.17 9.34-2.17 5.3 0 9.1 1.67 3.78 1.67 6.13 4.57 2.27 2.76 3.35 6.5 1.13 3.73 1.13 8.1v3.25h-32.1q0 4.76.88 8.64.94 3.89 2.9 6.84 1.92 2.85 5.02 4.52 3.1 1.62 7.37 1.62 4.38 0 7.52-2.01 3.2-2.07 6.14-7.38zm-10.86-18.48q0-2.75-.5-5.9-.44-3.15-1.47-5.26-1.13-2.26-3.1-3.69-1.96-1.42-5.06-1.42-5.16 0-8.6 4.33-3.4 4.27-3.69 11.94zm63.25 29.88h-22.22v-3.24q2.22-.25 3.74-.5 1.57-.24 1.57-1.27 0-.45-.49-1.38-.49-.93-.98-1.72-1.23-1.92-3.4-5.11-2.1-3.25-5.2-7.72-2.56 3.2-4.72 6.24-2.16 3-4.52 6.4-.35.49-.74 1.22-.34.74-.34 1.18 0 1.08 1.37 1.82 1.43.69 4.23.93v3.15h-17.94v-3.05q3.34-.98 5.36-2.36 2.06-1.42 3.78-3.49 1.52-1.96 4.23-5.4 2.75-3.44 7.08-9.34-2.51-3.59-6.15-8.75-3.59-5.2-5.95-8.65-1.27-1.87-2.95-3-1.62-1.18-4.62-1.18v-3.24h21.1v3.24q-1.58 0-3.1.2-1.53.2-1.53.88 0 .45.3.98.3.55.73 1.19l3.35 5.16q2.3 3.49 4.96 7.37l3.98-5.5q2.3-3.15 4.23-6 .2-.35.39-.84.2-.54.2-1.03 0-1.03-1.72-1.62-1.67-.64-3.2-.88v-3.15h17.9v3.04q-3.8.99-5.9 2.36-2.12 1.33-3.6 3.1-1.61 2.02-3.88 4.97-2.2 2.94-6.24 8.25 4.47 6.3 7.27 10.32 2.8 4.03 5.66 8.3 1.42 2.17 3.14 3.45 1.77 1.23 4.82 1.43z" aria-label="Lex" fill="#FFF"/>
</svg>
