<svg viewBox="0 0 200 200" xmlns="http://www.w3.org/2000/svg">
  <path fill="#0069d9" d="M131 48.3c13.7 5.8 32.3 5.1 42.9 12.6 10.6 7.5 13 23.3 12.3 38.7-.6 15.4-4.5 30.4-11.9 43.3-7.4 13-18.4 24-31.4 30.2-13 6.1-27.9 7.6-42.5 6.9-14.6-.7-28.7-3.5-43.1-8.9-14.4-5.4-28.9-13.4-36.3-25.7-7.4-12.2-7.7-28.8-4.4-43.5C20 87.3 26.9 74.6 34.4 62.4c7.5-12.1 15.5-23.7 26.5-31C72 24.1 86 21 97.3 25.6c11.4 4.6 20.1 16.9 33.7 22.7z"/>
  <path fill="#fff" aria-label="Lex" d="m93.39 114.781-1.406 19.781H40v-3.328q1.125-.093 3.234-.328 2.157-.234 3-.61 1.407-.608 2.016-1.78.656-1.172.656-3V77.89q0-1.594-.562-2.813-.516-1.219-2.11-1.969-1.078-.562-3.047-1.078-1.921-.562-3.187-.656v-3.328h28.078v3.328q-1.312.047-3.422.469-2.062.422-3 .75-1.593.562-2.203 1.922-.562 1.359-.562 2.906v44.672q0 3.094.28 4.828.329 1.687 1.454 2.625 1.078.844 3.188 1.125 2.156.234 6 .234 1.734 0 3.609-.093 1.875-.094 3.562-.375 1.641-.282 3-.75 1.407-.516 2.063-1.266 1.922-2.156 4.453-6.516 2.578-4.406 3.563-7.125zm44.391 8.906q-2.906 5.532-7.781 8.813-4.875 3.281-11.203 3.281-5.578 0-9.797-1.969-4.172-1.968-6.89-5.343-2.72-3.375-4.079-7.875-1.312-4.5-1.312-9.516 0-4.5 1.406-8.812 1.453-4.36 4.219-7.829 2.672-3.328 6.61-5.343 3.984-2.063 8.905-2.063 5.063 0 8.672 1.594 3.61 1.594 5.86 4.36 2.156 2.624 3.187 6.187 1.078 3.562 1.078 7.734V110h-30.61q0 4.547.845 8.25.89 3.703 2.765 6.516 1.828 2.718 4.781 4.312 2.954 1.547 7.032 1.547 4.172 0 7.172-1.922 3.047-1.969 5.859-7.031zm-10.36-17.624q0-2.626-.468-5.626-.422-3-1.406-5.015-1.078-2.156-2.953-3.516-1.875-1.36-4.828-1.36-4.922 0-8.204 4.126-3.234 4.078-3.515 11.39zm60.235 28.5H166.47v-3.094q2.11-.235 3.562-.469 1.5-.234 1.5-1.219 0-.422-.469-1.312-.468-.89-.937-1.64-1.172-1.829-3.234-4.876-2.016-3.094-4.97-7.36-2.437 3.048-4.5 5.954-2.062 2.86-4.312 6.094-.328.468-.703 1.171-.328.704-.328 1.126 0 1.03 1.313 1.734 1.359.656 4.03.89v3h-17.108v-2.906q3.187-.937 5.109-2.25 1.969-1.36 3.61-3.328 1.452-1.875 4.03-5.156 2.625-3.281 6.75-8.906-2.39-3.422-5.859-8.344-3.422-4.969-5.672-8.25-1.219-1.781-2.812-2.86-1.547-1.124-4.406-1.124v-3.094h20.109v3.094q-1.5 0-2.953.187-1.453.188-1.453.844 0 .422.28.937.282.516.704 1.125 1.031 1.594 3.188 4.922 2.203 3.328 4.734 7.031 1.64-2.25 3.797-5.25 2.203-3 4.031-5.718.188-.329.375-.797.188-.516.188-.985 0-.984-1.641-1.546-1.594-.61-3.047-.844v-3h17.063v2.906q-3.61.938-5.625 2.25-2.016 1.266-3.422 2.953-1.547 1.922-3.703 4.734-2.11 2.813-5.954 7.876 4.266 6 6.938 9.843 2.672 3.844 5.39 7.922 1.36 2.063 3 3.281 1.688 1.172 4.594 1.36z"/>
</svg>
