<svg viewBox="0 0 67.77095 41.46651" xmlns="http://www.w3.org/2000/svg">
  <path fill="#0069d9" d="M30.8004 6.57895c3.62478 1.5346 8.54603 1.34938 11.35062 3.33375 2.80458 1.98438 3.43958 6.1648 3.25437 10.23938-.15875 4.07458-1.19062 8.04333-3.14854 11.45646-1.95792 3.43958-4.86833 6.35-8.30792 7.99041-3.43958 1.61396-7.38187 2.01084-11.24478 1.82563-3.86292-.1852-7.59354-.92604-11.40354-2.35479-3.81-1.42875-7.64646-3.54542-9.60438-6.79979-1.95792-3.22792-2.0373-7.62-1.16417-11.50938.89959-3.86292 2.72521-7.22312 4.70959-10.45104C7.22602 7.10812 9.34269 4.03895 12.2531 2.1075 15.18998.17604 18.89415-.64417 21.88394.57291c3.01625 1.2171 5.31812 4.47146 8.91645 6.00604z" />
  <path fill="#ffffff" aria-label="Lex" d="m20.84958 24.1688-.37207 5.23377H6.72331v-.88056q.29766-.0248.85577-.0868.5705-.062.79375-.16123.37207-.16123.5333-.47129.17363-.31006.17363-.79375V14.40816q0-.42168-.14883-.74414-.13642-.32246-.5581-.5209-.28526-.14883-.80616-.28525-.5085-.14883-.84336-.17363v-.88057h7.429v.88057q-.34726.0124-.90536.12402-.5457.11162-.79375.19844-.42168.14882-.58291.5085-.14883.35966-.14883.76894v11.81943q0 .81856.0744 1.27744.08683.4465.38448.69453.28526.22324.84336.29766.5705.062 1.5875.062.45889 0 .95498-.0248.4961-.0248.94258-.0992.43408-.0744.79375-.19844.37207-.13642.5457-.33486.5085-.5705 1.17823-1.72393.68212-1.16582.94257-1.88515zm11.74502 2.35643q-.76895 1.46348-2.05879 2.33164-1.28984.86817-2.96415.86817-1.47588 0-2.5921-.5209-1.1038-.5209-1.82314-1.41387-.71934-.89297-1.079-2.08359-.34727-1.19063-.34727-2.51768 0-1.19062.37207-2.33164.38447-1.15342 1.11621-2.07119.70694-.88057 1.74873-1.41387 1.0542-.5457 2.35645-.5457 1.33945 0 2.29443.42168.95498.42168 1.5503 1.15342.5705.69453.84335 1.6371.28525.94258.28525 2.0464v.81855h-8.09872q0 1.20302.22324 2.18281.23564.9798.73174 1.72393.48369.71933 1.26504 1.14101.78135.40928 1.86035.40928 1.1038 0 1.89755-.5085.80615-.5209 1.5503-1.86035zm-2.74092-4.66328q0-.69453-.12402-1.48828-.11162-.79375-.37207-1.32705-.28526-.5705-.78135-.93018-.49609-.35967-1.27744-.35967-1.30224 0-2.1704 1.09141-.85577 1.079-.93018 3.01377zm15.93701 7.54062h-5.60586v-.81855q.55811-.062.94258-.12402.39688-.062.39688-.32246 0-.11163-.12403-.34727-.12402-.23564-.24804-.43408-.31006-.48369-.85577-1.28984-.5333-.81856-1.31465-1.94717-.64492.80615-1.19062 1.5751-.5457.75654-1.14102 1.6123-.0868.12402-.18603.31006-.0868.18603-.0868.29765 0 .27285.34727.4589.35967.17362 1.0666.23563v.79375h-4.52685v-.76894q.84335-.24805 1.35185-.5953.5209-.35968.95498-.88058.38447-.49609 1.0666-1.36426.69453-.86816 1.78594-2.35644-.63252-.90537-1.55029-2.20762-.90537-1.31465-1.50069-2.1828-.32246-.4713-.74414-.75656-.40928-.29765-1.16582-.29765v-.81856h5.32061v.81856q-.39688 0-.78135.0496t-.38447.22324q0 .11162.0744.24805.0744.13642.18604.29765.27285.42168.84336 1.30225.58291.88057 1.25263 1.86035.4341-.5953 1.0046-1.38906.5829-.79375 1.0666-1.51309.0496-.0868.0992-.21084.0496-.13642.0496-.26045 0-.26045-.43409-.40927-.42168-.16123-.80615-.22325v-.79375h4.51445v.76895q-.95498.24805-1.48828.59531-.5333.33486-.90537.78135-.40928.5085-.97979 1.25264-.5581.74414-1.57509 2.0836 1.12861 1.5875 1.83554 2.60448.70694 1.017 1.42627 2.096.35967.5457.79375.86816.4465.31006 1.21543.35967z"/>
  <path fill="#0069d9" aria-label="in" d="M52.76412 29.40257H46.8482v-.81856q.28526-.0248.58291-.0496.31006-.0248.5333-.0992.34727-.11162.5085-.38448.17363-.28525.17363-.73173v-7.55303q0-.39688-.18603-.71934-.17364-.33486-.4961-.5581-.23564-.14883-.68213-.24805-.44648-.11162-.81855-.13643v-.80615l4.31601-.27285.17364.17363v9.9715q0 .43407.16123.71932.17363.28526.5333.42168.27285.11162.5333.18604.26045.062.58291.0868zm-1.5627-17.20205q0 .70693-.47129 1.24023-.45888.5209-1.141.5209-.63253 0-1.10382-.49609-.45889-.5085-.45889-1.15342 0-.68213.4589-1.19062.47128-.5085 1.1038-.5085.70693 0 1.15342.4837.45888.47128.45888 1.1038zm16.56953 17.20205h-5.99033v-.81856q.28526-.0248.62012-.0496.34727-.0248.57051-.0992.34726-.11162.5085-.38448.17363-.28525.17363-.73173v-6.28799q0-1.30225-.62012-2.00918-.60772-.70694-1.48828-.70694-.65733 0-1.20303.21084-.5457.19844-.96738.4961-.40928.28525-.65733.62012-.23564.32246-.34726.5209v7.03212q0 .42168.17363.69453.17363.27286.5209.42168.26045.12403.55811.18604.31005.062.63251.0868v.81856H54.2648v-.81856q.28526-.0248.58291-.0496.31006-.0248.5333-.0992.34727-.11162.5085-.38448.17363-.28525.17363-.73173v-7.55303q0-.42168-.18603-.76895-.17364-.35966-.4961-.5829-.23564-.14883-.5581-.21085-.32246-.0744-.69453-.0992v-.80615l4.06797-.27285.17363.17363v1.72393h.062q.29766-.29766.74414-.70693.4465-.42168.84336-.68213.4589-.29766 1.09141-.4961.63252-.19843 1.42627-.19843 1.76113 0 2.6045 1.1038.85575 1.09141.85575 2.91455v6.36241q0 .43408.14883.70693.14883.26045.5085.40928.29765.12402.5085.17363.22323.0496.6077.0744z"/>
</svg>
