<?xml version="1.0" encoding="UTF-8" standalone="no"?>
<svg
   viewBox="0 0 555 200"
   version="1.1"
   id="svg2"
   sodipodi:docname="lexin_full_logo_inkscape.svg"
   width="555"
   height="200"
   inkscape:export-filename="../../../../../lexin_full_logo.svg"
   inkscape:export-xdpi="96"
   inkscape:export-ydpi="96"
   inkscape:version="1.3.2 (091e20e, 2023-11-25)"
   xmlns:inkscape="http://www.inkscape.org/namespaces/inkscape"
   xmlns:sodipodi="http://sodipodi.sourceforge.net/DTD/sodipodi-0.dtd"
   xmlns="http://www.w3.org/2000/svg"
   xmlns:svg="http://www.w3.org/2000/svg">
  <defs
     id="defs2" />
  <sodipodi:namedview
     id="namedview2"
     pagecolor="#ffffff"
     bordercolor="#000000"
     borderopacity="0.25"
     inkscape:showpageshadow="2"
     inkscape:pageopacity="0.0"
     inkscape:pagecheckerboard="0"
     inkscape:deskcolor="#d1d1d1"
     showguides="true"
     inkscape:zoom="2.79"
     inkscape:cx="266.48746"
     inkscape:cy="133.87097"
     inkscape:window-width="2224"
     inkscape:window-height="1212"
     inkscape:window-x="2669"
     inkscape:window-y="46"
     inkscape:window-maximized="0"
     inkscape:current-layer="svg2" />
  <path
     fill="#0069d9"
     d="m 131,48.3 c 13.7,5.8 32.3,5.1 42.9,12.6 10.6,7.5 13,23.3 12.3,38.7 -0.6,15.4 -4.5,30.4 -11.9,43.3 -7.4,13 -18.4,24 -31.4,30.2 -13,6.1 -27.9,7.6 -42.5,6.9 C 85.8,179.3 71.7,176.5 57.3,171.1 42.9,165.7 28.4,157.7 21,145.4 13.6,133.2 13.3,116.6 16.6,101.9 20,87.3 26.9,74.6 34.4,62.4 41.9,50.3 49.9,38.7 60.9,31.4 72,24.1 86,21 97.3,25.6 c 11.4,4.6 20.1,16.9 33.7,22.7 z"
     id="path1"
     inkscape:label="blue_blob" />
  <path
     d="M 96.26,115.47 94.8,136.2 H 40.3 v -3.49 q 1.17,-0.1 3.38,-0.34 2.26,-0.25 3.15,-0.64 1.47,-0.64 2.11,-1.87 0.69,-1.23 0.69,-3.15 V 76.8 q 0,-1.67 -0.59,-2.95 -0.54,-1.28 -2.21,-2.06 -1.13,-0.6 -3.2,-1.14 -2.01,-0.59 -3.34,-0.68 v -3.5 h 29.44 v 3.5 q -1.38,0.05 -3.59,0.49 -2.16,0.44 -3.14,0.78 -1.67,0.6 -2.31,2.02 -0.6,1.42 -0.6,3.05 v 46.83 q 0,3.25 0.3,5.07 0.35,1.77 1.53,2.75 1.13,0.88 3.34,1.18 2.26,0.24 6.29,0.24 1.82,0 3.78,-0.1 1.97,-0.1 3.74,-0.39 1.72,-0.3 3.14,-0.78 1.48,-0.55 2.17,-1.33 2.01,-2.26 4.67,-6.83 2.7,-4.62 3.73,-7.47 z m 46.55,9.34 q -3.05,5.8 -8.16,9.24 -5.11,3.44 -11.75,3.44 -5.85,0 -10.27,-2.07 -4.37,-2.06 -7.23,-5.6 -2.85,-3.54 -4.27,-8.26 -1.38,-4.72 -1.38,-9.97 0,-4.72 1.48,-9.25 1.52,-4.56 4.42,-8.2 2.8,-3.5 6.93,-5.6 4.18,-2.17 9.34,-2.17 5.3,0 9.1,1.67 3.78,1.67 6.13,4.57 2.27,2.76 3.35,6.5 1.13,3.73 1.13,8.1 v 3.25 h -32.1 q 0,4.76 0.88,8.64 0.94,3.89 2.9,6.84 1.92,2.85 5.02,4.52 3.1,1.62 7.37,1.62 4.38,0 7.52,-2.01 3.2,-2.07 6.14,-7.38 z m -10.86,-18.48 q 0,-2.75 -0.5,-5.9 -0.44,-3.15 -1.47,-5.26 -1.13,-2.26 -3.1,-3.69 -1.96,-1.42 -5.06,-1.42 -5.16,0 -8.6,4.33 -3.4,4.27 -3.69,11.94 z m 63.25,29.88 h -22.22 v -3.24 q 2.22,-0.25 3.74,-0.5 1.57,-0.24 1.57,-1.27 0,-0.45 -0.49,-1.38 -0.49,-0.93 -0.98,-1.72 -1.23,-1.92 -3.4,-5.11 -2.1,-3.25 -5.2,-7.72 -2.56,3.2 -4.72,6.24 -2.16,3 -4.52,6.4 -0.35,0.49 -0.74,1.22 -0.34,0.74 -0.34,1.18 0,1.08 1.37,1.82 1.43,0.69 4.23,0.93 v 3.15 h -17.94 v -3.05 q 3.34,-0.98 5.36,-2.36 2.06,-1.42 3.78,-3.49 1.52,-1.96 4.23,-5.4 2.75,-3.44 7.08,-9.34 -2.51,-3.59 -6.15,-8.75 -3.59,-5.2 -5.95,-8.65 -1.27,-1.87 -2.95,-3 -1.62,-1.18 -4.62,-1.18 v -3.24 h 21.1 v 3.24 q -1.58,0 -3.1,0.2 -1.53,0.2 -1.53,0.88 0,0.45 0.3,0.98 0.3,0.55 0.73,1.19 l 3.35,5.16 q 2.3,3.49 4.96,7.37 l 3.98,-5.5 q 2.3,-3.15 4.23,-6 0.2,-0.35 0.39,-0.84 0.2,-0.54 0.2,-1.03 0,-1.03 -1.72,-1.62 -1.67,-0.64 -3.2,-0.88 v -3.15 h 17.9 v 3.04 q -3.8,0.99 -5.9,2.36 -2.12,1.33 -3.6,3.1 -1.61,2.02 -3.88,4.97 -2.2,2.94 -6.24,8.25 4.47,6.3 7.27,10.32 2.8,4.03 5.66,8.3 1.42,2.17 3.14,3.45 1.77,1.23 4.82,1.43 z"
     aria-label="Lex"
     fill="#ffffff"
     id="path2"
     style="display:none"
     inkscape:label="original_old_label-Lex" />
  <text
     xml:space="preserve"
     style="font-style:normal;font-variant:normal;font-weight:normal;font-stretch:normal;font-size:96px;font-family:Georgia;-inkscape-font-specification:'Georgia, Normal';font-variant-ligatures:normal;font-variant-caps:normal;font-variant-numeric:normal;font-variant-east-asian:normal;display:none;fill:#ff1313;fill-opacity:1;stroke-width:1.00157"
     x="35.40625"
     y="134.5625"
     id="text4"
     inkscape:label="reference_text-Lexin.mobi"><tspan
       sodipodi:role="line"
       id="tspan4"
       x="35.40625"
       y="134.5625">Lexin.mobi</tspan></text>
  <text
     xml:space="preserve"
     style="font-style:normal;font-variant:normal;font-weight:normal;font-stretch:normal;font-size:96px;font-family:Georgia;-inkscape-font-specification:'Georgia, Normal';font-variant-ligatures:normal;font-variant-caps:normal;font-variant-numeric:normal;font-variant-east-asian:normal;display:none;fill:#ffffff;fill-opacity:1;stroke-width:1.00157"
     x="35.40625"
     y="134.5625"
     id="text2"
     inkscape:label="Lex"><tspan
       sodipodi:role="line"
       id="tspan2"
       x="35.40625"
       y="134.5625">Lex</tspan></text>
  <text
     xml:space="preserve"
     style="font-style:normal;font-variant:normal;font-weight:normal;font-stretch:normal;font-size:96px;font-family:Georgia;-inkscape-font-specification:'Georgia, Normal';font-variant-ligatures:normal;font-variant-caps:normal;font-variant-numeric:normal;font-variant-east-asian:normal;display:none;fill:#0069d9;fill-opacity:1;stroke-width:1.00157"
     x="188.18437"
     y="134.5625"
     id="text3"
     inkscape:label="in.mobi"><tspan
       sodipodi:role="line"
       id="tspan3"
       x="188.18437"
       y="134.5625">in.mobi</tspan></text>
  <path
     d="m 93.390625,114.78125 -1.40625,19.78125 H 40 v -3.32813 q 1.125,-0.0937 3.234375,-0.32812 2.15625,-0.23438 3,-0.60938 1.40625,-0.60937 2.015625,-1.78125 0.65625,-1.17187 0.65625,-2.99999 V 77.890625 q 0,-1.59375 -0.5625,-2.8125 -0.515625,-1.21875 -2.109375,-1.96875 Q 45.15625,72.546875 43.1875,72.03125 41.265625,71.46875 40,71.375 V 68.046875 H 68.078125 V 71.375 q -1.3125,0.04687 -3.421875,0.46875 -2.0625,0.421875 -3,0.75 -1.59375,0.5625 -2.203125,1.921875 -0.5625,1.359375 -0.5625,2.90625 v 44.671875 q 0,3.09375 0.28125,4.82813 0.328125,1.68749 1.453125,2.62499 1.078125,0.84375 3.1875,1.125 2.15625,0.23438 6,0.23438 1.734375,0 3.609375,-0.0937 1.875,-0.0937 3.5625,-0.375 1.640625,-0.28125 3,-0.75 1.40625,-0.51563 2.0625,-1.26563 1.921875,-2.15624 4.453125,-6.51562 2.578125,-4.40625 3.5625,-7.125 z m 44.390625,8.90625 Q 134.875,129.21875 130,132.5 q -4.875,3.28125 -11.20312,3.28125 -5.57813,0 -9.79688,-1.96875 -4.17187,-1.96875 -6.89062,-5.34375 -2.718755,-3.375 -4.07813,-7.875 -1.3125,-4.5 -1.3125,-9.51562 0,-4.5 1.40625,-8.8125 1.453125,-4.35938 4.21875,-7.82813 2.67188,-3.328125 6.60938,-5.34375 3.98437,-2.0625 8.90625,-2.0625 5.0625,0 8.67187,1.59375 3.60937,1.59375 5.85937,4.359375 2.15625,2.625 3.1875,6.1875 1.07813,3.562505 1.07813,7.734375 V 110 h -30.60937 q 0,4.54688 0.84375,8.25 0.89062,3.70313 2.76562,6.51563 1.82813,2.71875 4.78125,4.31249 2.95313,1.54688 7.03125,1.54688 4.17188,0 7.17187,-1.92188 3.04688,-1.96874 5.85938,-7.03124 z m -10.35937,-17.625 q 0,-2.625 -0.46875,-5.625 -0.42188,-3 -1.40625,-5.015625 -1.07813,-2.15625 -2.95313,-3.515625 -1.875,-1.359375 -4.82812,-1.359375 -4.92188,0 -8.20313,4.125 -3.23437,4.078125 -3.51562,11.390625 z m 60.23437,28.5 h -21.1875 v -3.09375 q 2.10937,-0.23438 3.5625,-0.46875 1.5,-0.23438 1.5,-1.21875 0,-0.42188 -0.46875,-1.3125 -0.46875,-0.89062 -0.9375,-1.64062 -1.17188,-1.82813 -3.23438,-4.875 -2.01562,-3.09375 -4.96875,-7.35938 -2.4375,3.04688 -4.5,5.95313 -2.0625,2.85937 -4.3125,6.09375 -0.32812,0.46875 -0.70312,1.17187 -0.32813,0.70312 -0.32813,1.125 0,1.03125 1.3125,1.73437 1.35938,0.65625 4.03125,0.89063 v 3 H 140.3125 v -2.90625 q 3.1875,-0.9375 5.10937,-2.25 1.96875,-1.35938 3.60938,-3.32812 1.45312,-1.875 4.03125,-5.15625 2.625,-3.28125 6.75,-8.90625 -2.39063,-3.42188 -5.85938,-8.34375 -3.42187,-4.968755 -5.67187,-8.250005 -1.21875,-1.78125 -2.8125,-2.859375 -1.54688,-1.125 -4.40625,-1.125 v -3.09375 h 20.10937 v 3.09375 q -1.5,0 -2.95312,0.1875 -1.45313,0.1875 -1.45313,0.84375 0,0.421875 0.28125,0.9375 0.28125,0.515625 0.70313,1.125 1.03125,1.59375 3.1875,4.921875 2.20312,3.328125 4.73437,7.031255 1.64063,-2.25 3.79688,-5.25 2.20312,-3.000005 4.03125,-5.718755 0.1875,-0.328125 0.375,-0.796875 0.1875,-0.515625 0.1875,-0.984375 0,-0.984375 -1.64063,-1.546875 -1.59375,-0.609375 -3.04687,-0.84375 v -3 h 17.0625 V 91.25 q -3.60938,0.9375 -5.625,2.25 -2.01563,1.265625 -3.42188,2.953125 -1.54687,1.921875 -3.70312,4.734375 -2.10938,2.8125 -5.95313,7.875 4.26563,6 6.9375,9.84375 2.67188,3.84375 5.39063,7.92188 1.35937,2.06249 3,3.28124 1.6875,1.17188 4.59375,1.35938 z"
     id="text5"
     style="font-size:96px;font-family:Georgia;-inkscape-font-specification:'Georgia, Normal';fill:#ffffff;stroke-width:1.00157"
     inkscape:label="Lex"
     aria-label="Lex" />
  <path
     d="m 214.0125,134.5625 h -22.35938 v -3.09375 q 1.07813,-0.0937 2.20313,-0.1875 1.17187,-0.0937 2.01562,-0.375 1.3125,-0.42188 1.92188,-1.45313 Q 198.45,128.375 198.45,126.6875 V 98.140625 q 0,-1.5 -0.70313,-2.71875 -0.65625,-1.265625 -1.875,-2.109375 Q 194.98125,92.75 193.29375,92.375 191.60625,91.953125 190.2,91.859375 V 88.8125 l 16.3125,-1.03125 0.65625,0.65625 v 37.6875 q 0,1.64063 0.60937,2.71875 0.65625,1.07812 2.01563,1.59375 1.03125,0.42187 2.01562,0.70312 0.98438,0.23438 2.20313,0.32813 z m -5.90625,-65.015625 q 0,2.671875 -1.78125,4.6875 -1.73438,1.96875 -4.3125,1.96875 -2.39063,0 -4.17188,-1.875 -1.73437,-1.921875 -1.73437,-4.359375 0,-2.578125 1.73437,-4.5 1.78125,-1.921875 4.17188,-1.921875 2.67187,0 4.35937,1.828125 1.73438,1.78125 1.73438,4.171875 z m 62.625,65.015625 h -22.64063 v -3.09375 q 1.07813,-0.0937 2.34375,-0.1875 1.3125,-0.0937 2.15625,-0.375 1.3125,-0.42188 1.92188,-1.45313 0.65625,-1.07812 0.65625,-2.76562 v -23.76562 q 0,-4.92188 -2.34375,-7.593755 -2.29688,-2.671875 -5.625,-2.671875 -2.48438,0 -4.54688,0.796875 -2.0625,0.75 -3.65625,1.875 -1.54687,1.078125 -2.48437,2.34375 -0.89063,1.21875 -1.3125,1.96875 v 26.578125 q 0,1.59375 0.65625,2.625 0.65625,1.03125 1.96875,1.59375 0.98437,0.46875 2.10937,0.70312 1.17188,0.23438 2.39063,0.32813 v 3.09375 h -22.64063 v -3.09375 q 1.07813,-0.0937 2.20313,-0.1875 1.17187,-0.0937 2.01562,-0.375 1.3125,-0.42188 1.92188,-1.45313 0.65625,-1.07812 0.65625,-2.76562 V 98.140625 q 0,-1.59375 -0.70313,-2.90625 -0.65625,-1.359375 -1.875,-2.203125 -0.89062,-0.5625 -2.10937,-0.796875 -1.21875,-0.28125 -2.625,-0.375 V 88.8125 l 15.375,-1.03125 0.65625,0.65625 v 6.515625 h 0.23437 q 1.125,-1.125 2.8125,-2.671875 1.6875,-1.59375 3.1875,-2.578125 1.73438,-1.125 4.125,-1.875 2.39063,-0.75 5.39063,-0.75 6.65625,0 9.84375,4.171875 3.23437,4.125 3.23437,11.01563 v 24.04687 q 0,1.64063 0.5625,2.67187 0.5625,0.98438 1.92188,1.54688 1.125,0.46875 1.92187,0.65625 0.84375,0.1875 2.29688,0.28125 z m 21.75,-5.39063 q 0,2.625 -1.92188,4.5 -1.875,1.82813 -4.5,1.82813 -2.625,0 -4.54687,-1.82813 -1.875,-1.875 -1.875,-4.5 0,-2.62499 1.875,-4.49999 1.92187,-1.92188 4.54687,-1.92188 2.625,0 4.5,1.92188 1.92188,1.875 1.92188,4.49999 z M 381.45,134.5625 h -22.54688 v -3.09375 q 1.07813,-0.0937 2.15625,-0.1875 1.125,-0.0937 1.96875,-0.375 1.3125,-0.42188 1.92188,-1.45313 0.65625,-1.07812 0.65625,-2.76562 v -23.85937 q 0,-4.875005 -2.25,-7.500005 -2.20313,-2.671875 -5.53125,-2.671875 -2.29688,0 -4.3125,0.703125 -2.01563,0.703125 -3.70313,1.96875 -1.35937,1.03125 -2.29687,2.25 -0.89063,1.171875 -1.35938,1.96875 v 26.671875 q 0,1.64063 0.5625,2.71875 0.5625,1.03125 1.92188,1.59375 1.07812,0.42187 1.92187,0.65625 0.89063,0.1875 2.29688,0.28125 v 3.09375 h -22.07813 v -3.09375 q 1.07813,-0.0937 2.0625,-0.1875 1.03125,-0.0937 1.875,-0.375 1.3125,-0.42188 1.92188,-1.45313 0.65625,-1.07812 0.65625,-2.76562 v -23.85937 q 0,-4.875005 -2.25,-7.500005 -2.20313,-2.671875 -5.53125,-2.671875 -2.29688,0 -4.3125,0.75 -2.01563,0.703125 -3.70313,1.96875 -1.35937,1.03125 -2.29687,2.34375 -0.9375,1.265625 -1.40625,1.921875 V 126.125 q 0,1.59375 0.65625,2.67187 0.65625,1.07813 1.96875,1.64063 0.98437,0.46875 2.01562,0.70312 1.03125,0.23438 2.29688,0.32813 v 3.09375 h -22.45313 v -3.09375 q 1.07813,-0.0937 2.20313,-0.1875 1.17187,-0.0937 2.01562,-0.375 1.3125,-0.42188 1.92188,-1.45313 0.65625,-1.07812 0.65625,-2.76562 V 97.953125 q 0,-1.5 -0.70313,-2.671875 -0.65625,-1.21875 -1.875,-2.0625 -0.89062,-0.5625 -2.20312,-0.890625 -1.3125,-0.375 -2.71875,-0.46875 V 88.8125 L 317.04375,87.78125 317.7,88.4375 v 6.609375 h 0.32812 Q 319.2,93.875 320.8875,92.28125 q 1.6875,-1.59375 3.14062,-2.578125 1.64063,-1.125 4.07813,-1.875 2.48437,-0.75 5.34375,-0.75 4.5,0 7.73437,2.4375 3.23438,2.390625 4.64063,5.8125 1.6875,-1.640625 2.95312,-2.859375 1.3125,-1.265625 3.42188,-2.671875 1.78125,-1.21875 4.17187,-1.96875 2.4375,-0.75 5.39063,-0.75 5.85937,0 9.28125,3.84375 3.42187,3.84375 3.42187,11.812505 v 23.48437 q 0,1.64063 0.5625,2.71875 0.5625,1.03125 1.92188,1.59375 1.07812,0.42187 2.10937,0.65625 1.07813,0.1875 2.39063,0.28125 z m 50.4375,-23.57812 q 0,4.875 -1.54688,9.60937 -1.54687,4.6875 -4.40625,7.96875 -3.23437,3.75 -7.5,5.57812 -4.26562,1.82813 -9.5625,1.82813 -4.40625,0 -8.39062,-1.64063 -3.98438,-1.6875 -7.07813,-4.875 -3.04687,-3.14062 -4.875,-7.64062 -1.78125,-4.54687 -1.78125,-10.17187 0,-10.82813 6.28125,-17.718755 6.32813,-6.890625 16.54688,-6.890625 9.70312,0 15.98437,6.5625 6.32813,6.51563 6.32813,17.39063 z m -9.70313,0.0937 q 0,-3.51563 -0.70312,-7.40625 -0.70313,-3.937505 -2.10938,-6.656255 -1.5,-2.90625 -3.9375,-4.640625 -2.4375,-1.78125 -5.95312,-1.78125 -3.60938,0 -6.1875,1.78125 -2.53125,1.78125 -4.125,4.875 -1.5,2.85938 -2.10938,6.51563 -0.60937,3.65625 -0.60937,7.07812 0,4.5 0.70312,8.34375 0.75,3.79688 2.34375,6.79688 1.59375,2.99999 3.98438,4.73437 2.4375,1.6875 6,1.6875 5.85937,0 9.28125,-5.67187 3.42187,-5.67188 3.42187,-15.65625 z m 63.32813,0.32812 q 0,10.40625 -6.5625,17.48437 -6.5625,7.07813 -15.23438,7.07813 -3.79687,0 -7.5,-1.17188 -3.65625,-1.17187 -6.89062,-3.14062 l -3.46875,5.39062 -2.90625,-0.65625 q 0.23437,-3.46875 0.32812,-8.34375 0.0937,-4.87499 0.0937,-9.42187 v -45.75 q 0,-1.59375 -0.75,-3.1875 -0.70312,-1.59375 -1.82812,-2.296875 -0.89063,-0.609375 -3,-0.890625 -2.0625,-0.328125 -3.32813,-0.421875 v -3 L 451.43437,62 l 0.65625,0.703125 v 30.46875 l 0.32813,0.09375 q 2.90625,-3.09375 6.32812,-4.640625 3.46875,-1.546875 6.79688,-1.546875 8.53125,0 14.25,6.75 5.71875,6.750005 5.71875,17.578125 z m -9.79688,0.32813 q 0,-3.46875 -0.75,-7.07813 -0.75,-3.60937 -2.34375,-6.28125 -1.59375,-2.71875 -4.17187,-4.40625 -2.57813,-1.6875 -6.1875,-1.6875 -3.28125,0 -5.76563,1.3125 -2.4375,1.265625 -4.40625,3.46875 v 26.90625 q 0.28125,1.125 1.07813,2.625 0.84375,1.5 2.25,2.85937 1.40625,1.3125 3.1875,2.15625 1.78125,0.79688 4.35937,0.79688 5.71875,0 9.23438,-5.53125 3.51562,-5.53125 3.51562,-15.14062 z m 39.09375,22.82812 H 492.45 v -3.09375 q 1.07812,-0.0937 2.20312,-0.1875 1.17188,-0.0937 2.01563,-0.375 1.3125,-0.42188 1.92187,-1.45313 0.65625,-1.07812 0.65625,-2.76562 V 98.140625 q 0,-1.5 -0.70312,-2.71875 -0.65625,-1.265625 -1.875,-2.109375 -0.89063,-0.5625 -2.57813,-0.9375 -1.6875,-0.421875 -3.09375,-0.515625 V 88.8125 l 16.3125,-1.03125 0.65625,0.65625 v 37.6875 q 0,1.64063 0.60938,2.71875 0.65625,1.07812 2.01562,1.59375 1.03125,0.42187 2.01563,0.70312 0.98437,0.23438 2.20312,0.32813 z m -5.90625,-65.015625 q 0,2.671875 -1.78125,4.6875 -1.73437,1.96875 -4.3125,1.96875 -2.39062,0 -4.17187,-1.875 -1.73438,-1.921875 -1.73438,-4.359375 0,-2.578125 1.73438,-4.5 1.78125,-1.921875 4.17187,-1.921875 2.67188,0 4.35938,1.828125 1.73437,1.78125 1.73437,4.171875 z"
     id="text6"
     style="font-size:96px;font-family:Georgia;-inkscape-font-specification:'Georgia, Normal';fill:#0069d9;stroke-width:1.00157"
     inkscape:label="in.mobi"
     aria-label="in.mobi" />
</svg>
