<svg viewBox="0 0 555 200" xmlns="http://www.w3.org/2000/svg">
  <path fill="#0069d9" d="M131 48.3c13.7 5.8 32.3 5.1 42.9 12.6 10.6 7.5 13 23.3 12.3 38.7-.6 15.4-4.5 30.4-11.9 43.3-7.4 13-18.4 24-31.4 30.2-13 6.1-27.9 7.6-42.5 6.9-14.6-.7-28.7-3.5-43.1-8.9-14.4-5.4-28.9-13.4-36.3-25.7-7.4-12.2-7.7-28.8-4.4-43.5C20 87.3 26.9 74.6 34.4 62.4c7.5-12.1 15.5-23.7 26.5-31C72 24.1 86 21 97.3 25.6c11.4 4.6 20.1 16.9 33.7 22.7z"/>
  <path fill="#fff" aria-label="Lex" d="m93.39 114.781-1.406 19.781H40v-3.328q1.125-.093 3.234-.328 2.157-.234 3-.61 1.407-.608 2.016-1.78.656-1.172.656-3V77.89q0-1.594-.562-2.813-.516-1.219-2.11-1.969-1.078-.562-3.047-1.078-1.921-.562-3.187-.656v-3.328h28.078v3.328q-1.312.047-3.422.469-2.062.422-3 .75-1.593.562-2.203 1.922-.562 1.359-.562 2.906v44.672q0 3.094.28 4.828.329 1.687 1.454 2.625 1.078.844 3.188 1.125 2.156.234 6 .234 1.734 0 3.609-.093 1.875-.094 3.562-.375 1.641-.282 3-.75 1.407-.516 2.063-1.266 1.922-2.156 4.453-6.516 2.578-4.406 3.563-7.125zm44.391 8.906q-2.906 5.532-7.781 8.813-4.875 3.281-11.203 3.281-5.578 0-9.797-1.969-4.172-1.968-6.89-5.343-2.72-3.375-4.079-7.875-1.312-4.5-1.312-9.516 0-4.5 1.406-8.812 1.453-4.36 4.219-7.829 2.672-3.328 6.61-5.343 3.984-2.063 8.905-2.063 5.063 0 8.672 1.594 3.61 1.594 5.86 4.36 2.156 2.624 3.187 6.187 1.078 3.562 1.078 7.734V110h-30.61q0 4.547.845 8.25.89 3.703 2.765 6.516 1.828 2.718 4.781 4.312 2.954 1.547 7.032 1.547 4.172 0 7.172-1.922 3.047-1.969 5.859-7.031zm-10.36-17.624q0-2.626-.468-5.626-.422-3-1.406-5.015-1.078-2.156-2.953-3.516-1.875-1.36-4.828-1.36-4.922 0-8.204 4.126-3.234 4.078-3.515 11.39zm60.235 28.5H166.47v-3.094q2.11-.235 3.562-.469 1.5-.234 1.5-1.219 0-.422-.469-1.312-.468-.89-.937-1.64-1.172-1.829-3.234-4.876-2.016-3.094-4.97-7.36-2.437 3.048-4.5 5.954-2.062 2.86-4.312 6.094-.328.468-.703 1.171-.328.704-.328 1.126 0 1.03 1.313 1.734 1.359.656 4.03.89v3h-17.108v-2.906q3.187-.937 5.109-2.25 1.969-1.36 3.61-3.328 1.452-1.875 4.03-5.156 2.625-3.281 6.75-8.906-2.39-3.422-5.859-8.344-3.422-4.969-5.672-8.25-1.219-1.781-2.812-2.86-1.547-1.124-4.406-1.124v-3.094h20.109v3.094q-1.5 0-2.953.187-1.453.188-1.453.844 0 .422.28.937.282.516.704 1.125 1.031 1.594 3.188 4.922 2.203 3.328 4.734 7.031 1.64-2.25 3.797-5.25 2.203-3 4.031-5.718.188-.329.375-.797.188-.516.188-.985 0-.984-1.641-1.546-1.594-.61-3.047-.844v-3h17.063v2.906q-3.61.938-5.625 2.25-2.016 1.266-3.422 2.953-1.547 1.922-3.703 4.734-2.11 2.813-5.954 7.876 4.266 6 6.938 9.843 2.672 3.844 5.39 7.922 1.36 2.063 3 3.281 1.688 1.172 4.594 1.36z"/>
  <path fill="#0069d9" aria-label="in.mobi" d="M214.012 134.563h-22.359v-3.094q1.078-.094 2.203-.188 1.172-.093 2.016-.375 1.312-.422 1.922-1.453.656-1.078.656-2.766V98.142q0-1.5-.703-2.72-.656-1.265-1.875-2.109-.89-.562-2.578-.937-1.688-.422-3.094-.516v-3.046l16.313-1.032.656.656v37.688q0 1.64.61 2.719.655 1.078 2.015 1.594 1.031.421 2.015.703.985.234 2.204.328zm-5.906-65.016q0 2.672-1.781 4.687-1.734 1.97-4.313 1.97-2.39 0-4.171-1.876-1.735-1.922-1.735-4.36 0-2.577 1.735-4.5 1.78-1.921 4.171-1.921 2.672 0 4.36 1.828 1.734 1.781 1.734 4.172zm62.625 65.016h-22.64v-3.094q1.078-.094 2.343-.188 1.313-.093 2.157-.375 1.312-.422 1.921-1.453.657-1.078.657-2.765v-23.766q0-4.922-2.344-7.594-2.297-2.672-5.625-2.672-2.484 0-4.547.797-2.062.75-3.656 1.875-1.547 1.078-2.485 2.344-.89 1.219-1.312 1.969v26.578q0 1.594.656 2.625t1.969 1.594q.984.468 2.11.703 1.171.234 2.39.328v3.094h-22.64v-3.094q1.077-.094 2.202-.188 1.172-.093 2.016-.375 1.313-.422 1.922-1.453.656-1.078.656-2.765V98.14q0-1.594-.703-2.907-.656-1.359-1.875-2.203-.89-.562-2.11-.797-1.218-.28-2.624-.375v-3.046l15.375-1.032.656.656v6.516h.234q1.125-1.125 2.813-2.672 1.687-1.594 3.187-2.578 1.735-1.125 4.125-1.875 2.391-.75 5.391-.75 6.656 0 9.844 4.172 3.234 4.125 3.234 11.016v24.046q0 1.641.563 2.672.562.985 1.921 1.547 1.125.469 1.922.656.844.188 2.297.282zm21.75-5.391q0 2.625-1.922 4.5-1.875 1.828-4.5 1.828t-4.547-1.828q-1.875-1.875-1.875-4.5t1.875-4.5q1.922-1.922 4.547-1.922t4.5 1.922q1.922 1.875 1.922 4.5zm88.969 5.39h-22.547v-3.093l2.156-.188q1.125-.093 1.97-.375 1.312-.422 1.921-1.453.656-1.078.656-2.765v-23.86q0-4.875-2.25-7.5-2.203-2.672-5.531-2.672-2.297 0-4.313.703-2.015.704-3.703 1.97-1.359 1.03-2.297 2.25-.89 1.171-1.359 1.968v26.672q0 1.64.563 2.719.562 1.03 1.921 1.593 1.079.422 1.922.656.891.188 2.297.282v3.094h-22.078v-3.094q1.078-.094 2.063-.188 1.03-.093 1.875-.375 1.312-.422 1.921-1.453.657-1.078.657-2.765v-23.86q0-4.875-2.25-7.5-2.203-2.672-5.531-2.672-2.297 0-4.313.75-2.016.703-3.703 1.969-1.36 1.031-2.297 2.344-.938 1.265-1.406 1.922v26.484q0 1.594.656 2.672t1.969 1.64q.984.47 2.015.704 1.032.234 2.297.328v3.094h-22.453v-3.094q1.078-.094 2.203-.188 1.172-.093 2.016-.375 1.312-.422 1.922-1.453.656-1.078.656-2.765V97.953q0-1.5-.703-2.672-.656-1.219-1.875-2.062-.89-.563-2.203-.89-1.313-.376-2.719-.47v-3.046l15.469-1.032.656.656v6.61h.328q1.172-1.172 2.86-2.766 1.687-1.594 3.14-2.578 1.64-1.125 4.078-1.875 2.485-.75 5.344-.75 4.5 0 7.734 2.438 3.235 2.39 4.641 5.812 1.688-1.64 2.953-2.86 1.313-1.265 3.422-2.671 1.781-1.219 4.172-1.969 2.437-.75 5.39-.75 5.86 0 9.282 3.844 3.422 3.844 3.422 11.812v23.485q0 1.64.562 2.719.563 1.03 1.922 1.593 1.078.422 2.11.656 1.077.188 2.39.282zm50.438-23.578q0 4.875-1.547 9.61-1.547 4.687-4.407 7.969-3.234 3.75-7.5 5.578-4.265 1.828-9.562 1.828-4.406 0-8.39-1.64-3.985-1.688-7.079-4.876-3.047-3.14-4.875-7.64-1.781-4.547-1.781-10.172 0-10.828 6.281-17.72 6.328-6.89 16.547-6.89 9.703 0 15.984 6.563 6.328 6.515 6.328 17.39zm-9.704.094q0-3.516-.703-7.406-.703-3.938-2.11-6.656-1.5-2.907-3.937-4.641-2.437-1.781-5.953-1.781-3.61 0-6.187 1.781-2.531 1.781-4.125 4.875-1.5 2.86-2.11 6.516-.609 3.656-.609 7.078 0 4.5.703 8.343.75 3.797 2.344 6.797 1.594 3 3.984 4.735 2.438 1.687 6 1.687 5.86 0 9.281-5.672 3.422-5.672 3.422-15.656zm63.328.328q0 10.406-6.562 17.485-6.563 7.078-15.234 7.078-3.797 0-7.5-1.172-3.657-1.172-6.891-3.14l-3.469 5.39-2.906-.656q.234-3.47.328-8.344.094-4.875.094-9.422v-45.75q0-1.594-.75-3.188-.703-1.593-1.828-2.296-.89-.61-3-.891-2.063-.328-3.328-.422v-3L451.434 62l.657.703v30.469l.328.094q2.906-3.094 6.328-4.641 3.469-1.547 6.797-1.547 8.531 0 14.25 6.75 5.719 6.75 5.719 17.578zm-9.796.328q0-3.468-.75-7.078-.75-3.61-2.344-6.281-1.594-2.719-4.172-4.406-2.578-1.688-6.188-1.688-3.28 0-5.765 1.313-2.438 1.265-4.406 3.468v26.907q.28 1.125 1.078 2.625.844 1.5 2.25 2.86 1.406 1.312 3.187 2.155 1.781.797 4.36.797 5.718 0 9.234-5.531t3.516-15.14zm39.093 22.828H492.45v-3.093q1.078-.094 2.203-.188 1.172-.093 2.016-.375 1.312-.422 1.922-1.453.656-1.078.656-2.766V98.141q0-1.5-.703-2.72-.656-1.265-1.875-2.109-.89-.562-2.578-.937-1.688-.422-3.094-.516v-3.046l16.312-1.032.657.656v37.688q0 1.64.609 2.719.656 1.078 2.016 1.594 1.03.421 2.015.703.985.234 2.203.328zm-5.906-65.015q0 2.672-1.781 4.687-1.735 1.97-4.313 1.97-2.39 0-4.172-1.876-1.734-1.922-1.734-4.36 0-2.577 1.734-4.5 1.782-1.921 4.172-1.921 2.672 0 4.36 1.828 1.734 1.781 1.734 4.172z"/>
</svg>
