<?xml version="1.0" encoding="UTF-8" standalone="no"?>
<!-- Created with Inkscape (http://www.inkscape.org/) -->

<svg
   width="1200"
   height="630"
   viewBox="0 0 1200 630"
   version="1.1"
   id="svg1"
   inkscape:version="1.3.2 (091e20e, 2023-11-25)"
   sodipodi:docname="og_blueprint_inkscape.svg"
   inkscape:export-filename="og_blueprint.svg"
   inkscape:export-xdpi="96"
   inkscape:export-ydpi="96"
   xmlns:inkscape="http://www.inkscape.org/namespaces/inkscape"
   xmlns:sodipodi="http://sodipodi.sourceforge.net/DTD/sodipodi-0.dtd"
   xmlns="http://www.w3.org/2000/svg"
   xmlns:svg="http://www.w3.org/2000/svg">
  <sodipodi:namedview
     id="namedview1"
     pagecolor="#ffffff"
     bordercolor="#000000"
     borderopacity="0.25"
     inkscape:showpageshadow="2"
     inkscape:pageopacity="0.0"
     inkscape:pagecheckerboard="0"
     inkscape:deskcolor="#d1d1d1"
     inkscape:document-units="px"
     showguides="false"
     inkscape:zoom="1.3733135"
     inkscape:cx="826.10416"
     inkscape:cy="280.70794"
     inkscape:window-width="2152"
     inkscape:window-height="1212"
     inkscape:window-x="2711"
     inkscape:window-y="25"
     inkscape:window-maximized="0"
     inkscape:current-layer="layer1" />
  <defs
     id="defs1" />
  <g
     inkscape:label="Layer 1"
     inkscape:groupmode="layer"
     id="layer1">
    <path
       fill="#0069d9"
       d="m 1027.2351,37.953409 c 4.3821,1.855182 10.3314,1.631281 13.7219,4.030224 3.3905,2.398942 4.1582,7.452715 3.9343,12.378545 -0.1919,4.925829 -1.4394,9.723715 -3.8063,13.849896 -2.367,4.158168 -5.8854,7.676618 -10.0436,9.659743 -4.1582,1.951141 -8.9241,2.43093 -13.594,2.207027 -4.6699,-0.223901 -9.18,-1.119506 -13.7859,-2.846744 -4.60599,-1.727239 -9.24394,-4.286112 -11.6109,-8.220378 -2.36696,-3.90228 -2.46292,-9.211941 -1.40738,-13.913869 1.08752,-4.669941 3.29455,-8.732152 5.69349,-12.634432 2.39894,-3.870295 4.95779,-7.580659 8.47629,-9.91563 3.5504,-2.334972 8.0284,-3.326535 11.6428,-1.855183 3.6464,1.471352 6.4292,5.405618 10.7793,7.260801 z"
       id="path1"
       inkscape:label="blue_blob"
       style="stroke-width:0.319859" />
    <path
       d="m 1015.2054,59.218037 -0.4498,6.327212 h -16.62768 v -1.064532 q 0.35985,-0.02997 1.03454,-0.104958 0.6897,-0.07497 0.95954,-0.194916 0.4498,-0.194912 0.6448,-0.569749 0.2099,-0.374834 0.2099,-0.959574 V 47.418238 q 0,-0.509776 -0.18,-0.899605 -0.1649,-0.389828 -0.6747,-0.629722 -0.34481,-0.17992 -0.97453,-0.344848 -0.61472,-0.17992 -1.01955,-0.209907 v -1.064531 h 8.98108 v 1.064531 q -0.4199,0.01499 -1.0946,0.149934 -0.6597,0.134941 -0.9595,0.239894 -0.5098,0.17992 -0.7047,0.614729 -0.1799,0.434808 -0.1799,0.929591 v 14.288703 q 0,0.989564 0.09,1.544321 0.1049,0.539758 0.4648,0.839626 0.3449,0.269881 1.0195,0.359843 0.6897,0.07496 1.9192,0.07496 0.5548,0 1.1545,-0.02997 0.5997,-0.02997 1.1395,-0.119949 0.5248,-0.08995 0.9596,-0.239894 0.4498,-0.164928 0.6597,-0.404823 0.6147,-0.689693 1.4244,-2.08408 0.8246,-1.409378 1.1395,-2.278995 z m 14.1987,2.848746 q -0.9295,1.769219 -2.4889,2.818757 -1.5593,1.049537 -3.5834,1.049537 -1.7842,0 -3.1336,-0.629722 -1.3344,-0.629723 -2.204,-1.709246 -0.8697,-1.079525 -1.3045,-2.518891 -0.4198,-1.439365 -0.4198,-3.043656 0,-1.439366 0.4498,-2.818759 0.4648,-1.394386 1.3494,-2.503898 0.8547,-1.064531 2.1141,-1.709247 1.2744,-0.659709 2.8488,-0.659709 1.6192,0 2.7737,0.509776 1.1545,0.509774 1.8742,1.394385 0.6897,0.83963 1.0195,1.979128 0.3449,1.139499 0.3449,2.47391 v 0.989563 h -9.7907 q 0,1.454361 0.2699,2.638838 0.2849,1.184479 0.8846,2.084083 0.5848,0.869617 1.5293,1.379389 0.9446,0.494783 2.249,0.494783 1.3345,0 2.294,-0.61473 0.9746,-0.62972 1.8742,-2.249006 z m -3.3135,-5.637517 q 0,-0.83963 -0.1499,-1.799207 -0.135,-0.959577 -0.4498,-1.604293 -0.3449,-0.689695 -0.9446,-1.124504 -0.5998,-0.434808 -1.5443,-0.434808 -1.5744,0 -2.6239,1.319418 -1.0345,1.304425 -1.1245,3.643394 z m 19.2665,9.115983 h -6.777 v -0.989563 q 0.6747,-0.07496 1.1395,-0.149935 0.4798,-0.07496 0.4798,-0.389828 0,-0.134942 -0.15,-0.419814 -0.1499,-0.284874 -0.2998,-0.524768 -0.3749,-0.584744 -1.0346,-1.559313 -0.6447,-0.989563 -1.5893,-2.353964 -0.7796,0.974573 -1.4393,1.904163 -0.6597,0.914595 -1.3794,1.949141 -0.105,0.149933 -0.2249,0.374833 -0.105,0.224899 -0.105,0.359841 0,0.329855 0.4199,0.554755 0.4348,0.209906 1.2894,0.284875 v 0.959577 h -5.4726 v -0.92959 q 1.0196,-0.299868 1.6343,-0.719682 0.6297,-0.434811 1.1545,-1.064531 0.4648,-0.599735 1.2894,-1.649272 0.8396,-1.049537 2.1591,-2.848745 -0.7647,-1.094519 -1.8742,-2.668824 -1.0945,-1.589302 -1.8142,-2.638839 -0.3899,-0.569749 -0.8996,-0.914597 -0.4948,-0.359841 -1.4094,-0.359841 v -0.989563 h 6.4322 v 0.989563 q -0.4798,0 -0.9446,0.05997 -0.4648,0.05997 -0.4648,0.269881 0,0.13494 0.09,0.299868 0.09,0.164926 0.2249,0.359841 0.3299,0.509776 1.0196,1.574306 0.7047,1.064531 1.5143,2.249011 0.5248,-0.719684 1.2145,-1.679261 0.7047,-0.959578 1.2894,-1.829195 0.06,-0.104958 0.1199,-0.254888 0.06,-0.164926 0.06,-0.314861 0,-0.314861 -0.5248,-0.494781 -0.5097,-0.194915 -0.9745,-0.269881 v -0.959577 h 5.4576 v 0.92959 q -1.1545,0.299868 -1.7992,0.719682 -0.6448,0.404822 -1.0946,0.944584 -0.4947,0.614729 -1.1844,1.514333 -0.6747,0.899603 -1.9042,2.518889 1.3644,1.919154 2.219,3.148614 0.8547,1.229458 1.7243,2.533884 0.4348,0.659706 0.9595,1.049534 0.5398,0.374837 1.4694,0.434811 z"
       id="text5"
       style="font-size:96px;font-family:Georgia;-inkscape-font-specification:'Georgia, Normal';fill:#ffffff;stroke-width:0.320362"
       inkscape:label="Lex"
       aria-label="Lex" />
    <path
       d="m 1053.7874,65.545249 h -7.1519 v -0.989563 q 0.3449,-0.02997 0.7047,-0.05997 0.3749,-0.02997 0.6447,-0.119949 0.4199,-0.134943 0.6148,-0.464797 0.2099,-0.344847 0.2099,-0.884609 V 53.89538 q 0,-0.479788 -0.2249,-0.869617 -0.2099,-0.404821 -0.5998,-0.674702 -0.2848,-0.17992 -0.8246,-0.299868 -0.5397,-0.13494 -0.9895,-0.164927 v -0.97457 l 5.2176,-0.329856 0.21,0.209908 v 12.054688 q 0,0.524771 0.1949,0.869617 0.2099,0.344846 0.6447,0.509775 0.3298,0.134939 0.6447,0.2249 0.3149,0.07497 0.7047,0.104958 z m -1.8892,-20.795835 q 0,0.854622 -0.5697,1.499339 -0.5548,0.629723 -1.3794,0.629723 -0.7647,0 -1.3344,-0.599736 -0.5548,-0.614729 -0.5548,-1.394386 0,-0.824637 0.5548,-1.439366 0.5697,-0.614729 1.3344,-0.614729 0.8546,0 1.3944,0.584742 0.5547,0.569749 0.5547,1.334413 z m 20.0312,20.795835 h -7.2418 v -0.989563 q 0.3448,-0.02997 0.7497,-0.05997 0.4198,-0.02997 0.6897,-0.119949 0.4198,-0.134943 0.6147,-0.464797 0.2099,-0.344847 0.2099,-0.884609 v -7.601648 q 0,-1.574309 -0.7497,-2.428932 -0.7347,-0.854623 -1.7992,-0.854623 -0.7946,0 -1.4543,0.254887 -0.6597,0.239895 -1.1695,0.599736 -0.4948,0.344849 -0.7947,0.74967 -0.2849,0.389828 -0.4198,0.629722 v 8.501254 q 0,0.509776 0.2099,0.83963 0.2099,0.329855 0.6297,0.509775 0.3149,0.149935 0.6747,0.2249 0.3749,0.07497 0.7647,0.104958 v 0.989563 h -7.2418 V 64.55569 q 0.3448,-0.02997 0.7047,-0.05997 0.3748,-0.02997 0.6447,-0.119949 0.4198,-0.134943 0.6147,-0.464797 0.2099,-0.344847 0.2099,-0.884609 V 53.89538 q 0,-0.509774 -0.2249,-0.92959 -0.2099,-0.434808 -0.5997,-0.704689 -0.2849,-0.179921 -0.6747,-0.254888 -0.3898,-0.08996 -0.8396,-0.119949 v -0.97457 l 4.9178,-0.329855 0.2099,0.209908 v 2.084082 h 0.075 q 0.3598,-0.359841 0.8996,-0.854624 0.5397,-0.509775 1.0195,-0.824636 0.5548,-0.359842 1.3194,-0.599736 0.7647,-0.239895 1.7243,-0.239895 2.129,0 3.1486,1.334413 1.0345,1.319418 1.0345,3.523449 v 7.691609 q 0,0.52477 0.18,0.854621 0.1799,0.314864 0.6147,0.494784 0.3598,0.149934 0.6147,0.209908 0.2699,0.05997 0.7347,0.08996 z m 6.9569,-1.724241 q 0,0.83963 -0.6147,1.439365 -0.5997,0.584744 -1.4394,0.584744 -0.8396,0 -1.4543,-0.584744 -0.5998,-0.599735 -0.5998,-1.439365 0,-0.839627 0.5998,-1.439363 0.6147,-0.61473 1.4543,-0.61473 0.8397,0 1.4394,0.61473 0.6147,0.599736 0.6147,1.439363 z m 28.4575,1.724241 h -7.2118 v -0.989563 q 0.3448,-0.02997 0.6897,-0.05997 0.3598,-0.02997 0.6297,-0.119949 0.4198,-0.134943 0.6147,-0.464797 0.2099,-0.344847 0.2099,-0.884609 v -7.631635 q 0,-1.559315 -0.7197,-2.398945 -0.7047,-0.854623 -1.7692,-0.854623 -0.7347,0 -1.3794,0.2249 -0.6447,0.224901 -1.1844,0.629723 -0.4349,0.329854 -0.7347,0.719683 -0.2849,0.374835 -0.4348,0.629723 v 8.53124 q 0,0.524771 0.1799,0.869617 0.1799,0.329855 0.6147,0.509775 0.3449,0.13494 0.6147,0.209908 0.2849,0.05997 0.7347,0.08996 v 0.989563 h -7.0619 v -0.989563 q 0.3449,-0.02997 0.6597,-0.05997 0.3299,-0.02997 0.5998,-0.119948 0.4198,-0.134943 0.6147,-0.464797 0.2099,-0.344847 0.2099,-0.884609 v -7.631636 q 0,-1.559314 -0.7197,-2.398944 -0.7047,-0.854624 -1.7692,-0.854624 -0.7347,0 -1.3794,0.239895 -0.6447,0.224901 -1.1845,0.629722 -0.4348,0.329855 -0.7346,0.74967 -0.2999,0.404822 -0.4498,0.614729 v 8.471266 q 0,0.509776 0.2099,0.854623 0.2099,0.344849 0.6297,0.52477 0.3149,0.149935 0.6447,0.2249 0.3299,0.07496 0.7347,0.104958 v 0.989563 h -7.1818 v -0.989563 q 0.3448,-0.02997 0.7046,-0.05997 0.3749,-0.02997 0.6448,-0.119948 0.4198,-0.134943 0.6147,-0.464797 0.2099,-0.344847 0.2099,-0.884609 V 53.8354 q 0,-0.479789 -0.2249,-0.854624 -0.2099,-0.389828 -0.5997,-0.659709 -0.2849,-0.179921 -0.7047,-0.284874 -0.4198,-0.119949 -0.8696,-0.149935 v -0.97457 l 4.9478,-0.329855 0.2099,0.209908 v 2.114069 h 0.1049 q 0.3748,-0.374835 0.9146,-0.884611 0.5398,-0.509775 1.0046,-0.824636 0.5247,-0.359842 1.3044,-0.599736 0.7946,-0.239895 1.7092,-0.239895 1.4394,0 2.4739,0.779657 1.0346,0.764664 1.4844,1.859181 0.5397,-0.524769 0.9446,-0.914597 0.4198,-0.404821 1.0945,-0.854624 0.5697,-0.389828 1.3344,-0.629722 0.7797,-0.239895 1.7242,-0.239895 1.8742,0 2.9687,1.229458 1.0946,1.22946 1.0946,3.778337 v 7.511689 q 0,0.524771 0.1799,0.869616 0.1799,0.329856 0.6147,0.509776 0.3449,0.134939 0.6747,0.209908 0.3448,0.05997 0.7647,0.08996 z m 16.1329,-7.541674 q 0,1.559313 -0.4948,3.073643 -0.4948,1.499339 -1.4094,2.548877 -1.0345,1.199472 -2.3989,1.784212 -1.3644,0.584745 -3.0587,0.584745 -1.4094,0 -2.6838,-0.524772 -1.2744,-0.539761 -2.264,-1.559312 -0.9746,-1.004556 -1.5593,-2.443921 -0.5698,-1.454358 -0.5698,-3.253565 0,-3.463475 2.0092,-5.667505 2.0241,-2.204028 5.2926,-2.204028 3.1037,0 5.1128,2.099075 2.0241,2.084083 2.0241,5.562551 z m -3.1036,0.02997 q 0,-1.124506 -0.225,-2.368956 -0.2248,-1.259446 -0.6747,-2.129063 -0.4797,-0.92959 -1.2594,-1.484346 -0.7797,-0.569749 -1.9042,-0.569749 -1.1545,0 -1.9791,0.569749 -0.8096,0.569749 -1.3194,1.559313 -0.4798,0.914598 -0.6747,2.084083 -0.1949,1.169484 -0.1949,2.264 0,1.439366 0.2249,2.668824 0.2399,1.214467 0.7496,2.174044 0.5098,0.959574 1.2745,1.514331 0.7796,0.539762 1.9191,0.539762 1.8742,0 2.9687,-1.814199 1.0946,-1.814202 1.0946,-5.007793 z m 20.256,0.104958 q 0,3.328534 -2.0991,5.592534 -2.099,2.264004 -4.8728,2.264004 -1.2145,0 -2.3989,-0.374836 -1.1695,-0.374834 -2.2041,-1.004556 l -1.1095,1.724238 -0.9296,-0.209907 q 0.075,-1.109511 0.105,-2.668824 0.03,-1.55931 0.03,-3.013671 V 45.813928 q 0,-0.509775 -0.2399,-1.01955 -0.2248,-0.509776 -0.5847,-0.734676 -0.2849,-0.194915 -0.9596,-0.284875 -0.6597,-0.104958 -1.0645,-0.134941 v -0.959577 l 5.4276,-0.344832 0.2099,0.224902 v 9.745705 l 0.105,0.02999 q 0.9296,-0.989565 2.0241,-1.484346 1.1095,-0.494783 2.174,-0.494783 2.7288,0 4.558,2.159049 1.8292,2.159051 1.8292,5.622523 z m -3.1336,0.104958 q 0,-1.109511 -0.2399,-2.264004 -0.2399,-1.154489 -0.7497,-2.009114 -0.5097,-0.869617 -1.3344,-1.409379 -0.8246,-0.539763 -1.9791,-0.539763 -1.0495,0 -1.8442,0.419816 -0.7796,0.404821 -1.4094,1.10951 v 8.606207 q 0.09,0.359843 0.3449,0.839631 0.2699,0.479789 0.7197,0.914595 0.4498,0.419815 1.0195,0.689696 0.5698,0.254889 1.3944,0.254889 1.8292,0 2.9537,-1.769219 1.1245,-1.769221 1.1245,-4.842865 z M 1150,65.545241 h -7.1519 v -0.989565 q 0.3449,-0.02997 0.7047,-0.05997 0.3749,-0.02997 0.6448,-0.119949 0.4198,-0.134941 0.6147,-0.464797 0.2099,-0.344845 0.2099,-0.884608 v -9.13096 q 0,-0.479789 -0.2249,-0.869617 -0.2099,-0.404822 -0.5997,-0.674702 -0.2849,-0.179921 -0.8247,-0.299868 -0.5397,-0.134941 -0.9895,-0.164928 v -0.97457 l 5.2176,-0.329855 0.21,0.209907 v 12.054688 q 0,0.524771 0.1949,0.869617 0.2099,0.344847 0.6447,0.509776 0.3298,0.134939 0.6447,0.224899 0.3149,0.07497 0.7047,0.104958 z m -1.8892,-20.795836 q 0,0.854623 -0.5697,1.499339 -0.5548,0.629722 -1.3794,0.629722 -0.7647,0 -1.3344,-0.599735 -0.5548,-0.614729 -0.5548,-1.394385 0,-0.824637 0.5548,-1.439366 0.5697,-0.614729 1.3344,-0.614729 0.8546,0 1.3944,0.584742 0.5547,0.569749 0.5547,1.334412 z"
       id="text6"
       style="font-size:96px;font-family:Georgia;-inkscape-font-specification:'Georgia, Normal';fill:#0069d9;stroke-width:0.320362"
       inkscape:label="in.mobi"
       aria-label="in.mobi" />
    <text
       xml:space="preserve"
       style="font-style:normal;font-variant:normal;font-weight:normal;font-stretch:normal;font-size:30.6667px;font-family:Georgia;-inkscape-font-specification:'Georgia, Normal';font-variant-ligatures:normal;font-variant-caps:normal;font-variant-numeric:normal;font-variant-east-asian:normal;mix-blend-mode:normal;fill:#9a9a9a;fill-opacity:1;stroke-width:1.00157"
       x="48.592487"
       y="65.541603"
       id="text2"
       inkscape:label="languages"><tspan
         sodipodi:role="line"
         id="tspan2"
         style="font-style:normal;font-variant:normal;font-weight:normal;font-stretch:normal;font-size:30.6667px;font-family:Georgia;-inkscape-font-specification:'Georgia, Normal';font-variant-ligatures:normal;font-variant-caps:normal;font-variant-numeric:normal;font-variant-east-asian:normal;fill:#9a9a9a;fill-opacity:1;stroke-width:1.00157"
         x="48.592487"
         y="65.541603">Шведский → Русский</tspan></text>
    <text
       xml:space="preserve"
       style="font-style:normal;font-variant:normal;font-weight:normal;font-stretch:normal;font-size:63.9999px;font-family:Georgia;-inkscape-font-specification:'Georgia, Normal';font-variant-ligatures:normal;font-variant-caps:normal;font-variant-numeric:normal;font-variant-east-asian:normal;fill:#000000;fill-opacity:1;stroke-width:1.00157"
       x="49.937519"
       y="168.37489"
       id="text1"
       inkscape:label="base_definition"><tspan
         sodipodi:role="line"
         id="tspan1"
         style="font-style:normal;font-variant:normal;font-weight:normal;font-stretch:normal;font-size:63.9999px;font-family:Georgia;-inkscape-font-specification:'Georgia, Normal';font-variant-ligatures:normal;font-variant-caps:normal;font-variant-numeric:normal;font-variant-east-asian:normal;fill:#000000;fill-opacity:1;stroke-width:1.00157"
         x="49.937519"
         y="168.37489">lastbil</tspan></text>
    <text
       xml:space="preserve"
       style="font-size:30.6667px;font-family:Georgia;-inkscape-font-specification:'Georgia, Normal';fill:#9a9a9a;stroke-width:1.00157"
       x="47.484394"
       y="218.17972"
       id="text4"
       inkscape:label="base_phonetic"><tspan
         sodipodi:role="line"
         id="tspan4"
         style="stroke-width:1.00157"
         x="47.484394"
         y="218.17972">[²lAs:tbi:l]</tspan></text>
    <text
       xml:space="preserve"
       style="font-size:30.6667px;font-family:Georgia;-inkscape-font-specification:'Georgia, Normal';fill:#9a9a9a;stroke-width:1.00157"
       x="48.248066"
       y="268.17972"
       id="text7"
       inkscape:label="base_inflections"><tspan
         sodipodi:role="line"
         id="tspan5"
         style="stroke-width:1.00157"
         x="48.248066"
         y="268.17972">(last|bil, lastbilen, lastbilar)</tspan></text>
    <text
       xml:space="preserve"
       style="font-size:30.6667px;font-family:Georgia;-inkscape-font-specification:'Georgia, Normal';fill:#000000;fill-opacity:1;stroke-width:1.00157"
       x="50.239582"
       y="318.1947"
       id="text3"
       inkscape:label="base_meaning"><tspan
         sodipodi:role="line"
         id="tspan3"
         style="fill:#000000;fill-opacity:1;stroke-width:1.00157"
         x="50.239582"
         y="318.1947">bil med flak som kan ta last</tspan></text>
    <text
       xml:space="preserve"
       style="font-style:normal;font-variant:normal;font-weight:normal;font-stretch:normal;font-size:63.9999px;font-family:Georgia;-inkscape-font-specification:'Georgia, Normal';font-variant-ligatures:normal;font-variant-caps:normal;font-variant-numeric:normal;font-variant-east-asian:normal;fill:#000000;fill-opacity:1;stroke-width:1.00157"
       x="48.093769"
       y="421.68744"
       id="text8"
       inkscape:label="target_definition"><tspan
         sodipodi:role="line"
         id="tspan7"
         style="font-style:normal;font-variant:normal;font-weight:normal;font-stretch:normal;font-size:63.9999px;font-family:Georgia;-inkscape-font-specification:'Georgia, Normal';font-variant-ligatures:normal;font-variant-caps:normal;font-variant-numeric:normal;font-variant-east-asian:normal;fill:#000000;fill-opacity:1;stroke-width:1.00157"
         x="48.093769"
         y="421.68744">грузовик</tspan></text>
    <text
       xml:space="preserve"
       style="font-size:30.6667px;font-family:Georgia;-inkscape-font-specification:'Georgia, Normal';fill:#9a9a9a;stroke-width:1.00157"
       x="48.248066"
       y="472.94012"
       id="text9"
       inkscape:label="target_synonyms"><tspan
         sodipodi:role="line"
         id="tspan8"
         style="stroke-width:1.00157"
         x="48.248066"
         y="472.94012">(грузовая фура)</tspan></text>
  </g>
</svg>
